# xmcd
# 
# Track frame offsets:
#     150
#     18205
#     32507
#     52315
#     71797
#     86370
#     96377
#     110587
#     130680
#     149660
# 
# Disc length: 2226
# 
# Revision: 1
# Processed by: cddbd v1.5.2PL0 Copyright (c) Steve Scherf et al.
# Submitted via: BonkEnc v1.0.5
# 
DISCID=8d08b00a
DTITLE=Buddy Guy and Junior Wells - Play the Blues
DYEAR=0
DGENRE=
TTITLE0=A Man of Many Words
TTITLE1=My Baby She Left Me (She  Left Me a Mule to Ride)
TTITLE2=a.Come On In this House - b.Have Mercy Baby
TTITLE3=T-Bone Shuffle
TTITLE4=A Poor Man`s Plea
TTITLE5=Messin` wih the Kid
TTITLE6=This Old Fool
TTITLE7=I don`t Know
TTITLE8=Bad Bad Whiskey
TTITLE9=Honeydripper
EXTD=
EXTT0=
EXTT1=
EXTT2=
EXTT3=
EXTT4=
EXTT5=
EXTT6=
EXTT7=
EXTT8=
EXTT9=
PLAYORDER=
